<svg xmlns="http://www.w3.org/2000/svg" width="366" height="190" viewBox="0 0 366 190" role="img"><text x="8" y="13" font-family="ui-monospace,monospace" font-size="11" fill="#8A90A0">vertices 1..18</text><rect x="8" y="20" width="9" height="9" fill="#9BA3B4"/><rect x="17" y="20" width="9" height="9" fill="#3E6FB0"/><rect x="26" y="20" width="9" height="9" fill="#3E6FB0"/><rect x="35" y="20" width="9" height="9" fill="#C89B4A"/><rect x="44" y="20" width="9" height="9" fill="#C89B4A"/><rect x="53" y="20" width="9" height="9" fill="#C89B4A"/><rect x="62" y="20" width="9" height="9" fill="#C89B4A"/><rect x="71" y="20" width="9" height="9" fill="#3E6FB0"/><rect x="80" y="20" width="9" height="9" fill="#3E6FB0"/><rect x="89" y="20" width="9" height="9" fill="#3E6FB0"/><rect x="98" y="20" width="9" height="9" fill="#3E6FB0"/><rect x="107" y="20" width="9" height="9" fill="#C89B4A"/><rect x="116" y="20" width="9" height="9" fill="#3E6FB0"/><rect x="125" y="20" width="9" height="9" fill="#C89B4A"/><rect x="134" y="20" width="9" height="9" fill="#3E6FB0"/><rect x="143" y="20" width="9" height="9" fill="#3E6FB0"/><rect x="152" y="20" width="9" height="9" fill="#C89B4A"/><rect x="161" y="20" width="9" height="9" fill="#C89B4A"/><rect x="8" y="29" width="9" height="9" fill="#3E6FB0"/><rect x="17" y="29" width="9" height="9" fill="#9BA3B4"/><rect x="26" y="29" width="9" height="9" fill="#3E6FB0"/><rect x="35" y="29" width="9" height="9" fill="#3E6FB0"/><rect x="44" y="29" width="9" height="9" fill="#C89B4A"/><rect x="53" y="29" width="9" height="9" fill="#C89B4A"/><rect x="62" y="29" width="9" height="9" fill="#C89B4A"/><rect x="71" y="29" width="9" height="9" fill="#C89B4A"/><rect x="80" y="29" width="9" height="9" fill="#3E6FB0"/><rect x="89" y="29" width="9" height="9" fill="#C89B4A"/><rect x="98" y="29" width="9" height="9" fill="#3E6FB0"/><rect x="107" y="29" width="9" height="9" fill="#3E6FB0"/><rect x="116" y="29" width="9" height="9" fill="#C89B4A"/><rect x="125" y="29" width="9" height="9" fill="#3E6FB0"/><rect x="134" y="29" width="9" height="9" fill="#C89B4A"/><rect x="143" y="29" width="9" height="9" fill="#3E6FB0"/><rect x="152" y="29" width="9" height="9" fill="#3E6FB0"/><rect x="161" y="29" width="9" height="9" fill="#C89B4A"/><rect x="8" y="38" width="9" height="9" fill="#3E6FB0"/><rect x="17" y="38" width="9" height="9" fill="#3E6FB0"/><rect x="26" y="38" width="9" height="9" fill="#9BA3B4"/><rect x="35" y="38" width="9" height="9" fill="#3E6FB0"/><rect x="44" y="38" width="9" height="9" fill="#3E6FB0"/><rect x="53" y="38" width="9" height="9" fill="#C89B4A"/><rect x="62" y="38" width="9" height="9" fill="#C89B4A"/><rect x="71" y="38" width="9" height="9" fill="#C89B4A"/><rect x="80" y="38" width="9" height="9" fill="#C89B4A"/><rect x="89" y="38" width="9" height="9" fill="#C89B4A"/><rect x="98" y="38" width="9" height="9" fill="#C89B4A"/><rect x="107" y="38" width="9" height="9" fill="#3E6FB0"/><rect x="116" y="38" width="9" height="9" fill="#3E6FB0"/><rect x="125" y="38" width="9" height="9" fill="#C89B4A"/><rect x="134" y="38" width="9" height="9" fill="#3E6FB0"/><rect x="143" y="38" width="9" height="9" fill="#C89B4A"/><rect x="152" y="38" width="9" height="9" fill="#3E6FB0"/><rect x="161" y="38" width="9" height="9" fill="#3E6FB0"/><rect x="8" y="47" width="9" height="9" fill="#C89B4A"/><rect x="17" y="47" width="9" height="9" fill="#3E6FB0"/><rect x="26" y="47" width="9" height="9" fill="#3E6FB0"/><rect x="35" y="47" width="9" height="9" fill="#9BA3B4"/><rect x="44" y="47" width="9" height="9" fill="#3E6FB0"/><rect x="53" y="47" width="9" height="9" fill="#3E6FB0"/><rect x="62" y="47" width="9" height="9" fill="#C89B4A"/><rect x="71" y="47" width="9" height="9" fill="#C89B4A"/><rect x="80" y="47" width="9" height="9" fill="#C89B4A"/><rect x="89" y="47" width="9" height="9" fill="#3E6FB0"/><rect x="98" y="47" width="9" height="9" fill="#C89B4A"/><rect x="107" y="47" width="9" height="9" fill="#C89B4A"/><rect x="116" y="47" width="9" height="9" fill="#3E6FB0"/><rect x="125" y="47" width="9" height="9" fill="#3E6FB0"/><rect x="134" y="47" width="9" height="9" fill="#C89B4A"/><rect x="143" y="47" width="9" height="9" fill="#3E6FB0"/><rect x="152" y="47" width="9" height="9" fill="#C89B4A"/><rect x="161" y="47" width="9" height="9" fill="#3E6FB0"/><rect x="8" y="56" width="9" height="9" fill="#C89B4A"/><rect x="17" y="56" width="9" height="9" fill="#C89B4A"/><rect x="26" y="56" width="9" height="9" fill="#3E6FB0"/><rect x="35" y="56" width="9" height="9" fill="#3E6FB0"/><rect x="44" y="56" width="9" height="9" fill="#9BA3B4"/><rect x="53" y="56" width="9" height="9" fill="#3E6FB0"/><rect x="62" y="56" width="9" height="9" fill="#3E6FB0"/><rect x="71" y="56" width="9" height="9" fill="#C89B4A"/><rect x="80" y="56" width="9" height="9" fill="#C89B4A"/><rect x="89" y="56" width="9" height="9" fill="#3E6FB0"/><rect x="98" y="56" width="9" height="9" fill="#3E6FB0"/><rect x="107" y="56" width="9" height="9" fill="#C89B4A"/><rect x="116" y="56" width="9" height="9" fill="#C89B4A"/><rect x="125" y="56" width="9" height="9" fill="#3E6FB0"/><rect x="134" y="56" width="9" height="9" fill="#3E6FB0"/><rect x="143" y="56" width="9" height="9" fill="#C89B4A"/><rect x="152" y="56" width="9" height="9" fill="#3E6FB0"/><rect x="161" y="56" width="9" height="9" fill="#C89B4A"/><rect x="8" y="65" width="9" height="9" fill="#C89B4A"/><rect x="17" y="65" width="9" height="9" fill="#C89B4A"/><rect x="26" y="65" width="9" height="9" fill="#C89B4A"/><rect x="35" y="65" width="9" height="9" fill="#3E6FB0"/><rect x="44" y="65" width="9" height="9" fill="#3E6FB0"/><rect x="53" y="65" width="9" height="9" fill="#9BA3B4"/><rect x="62" y="65" width="9" height="9" fill="#3E6FB0"/><rect x="71" y="65" width="9" height="9" fill="#3E6FB0"/><rect x="80" y="65" width="9" height="9" fill="#C89B4A"/><rect x="89" y="65" width="9" height="9" fill="#C89B4A"/><rect x="98" y="65" width="9" height="9" fill="#3E6FB0"/><rect x="107" y="65" width="9" height="9" fill="#3E6FB0"/><rect x="116" y="65" width="9" height="9" fill="#C89B4A"/><rect x="125" y="65" width="9" height="9" fill="#C89B4A"/><rect x="134" y="65" width="9" height="9" fill="#3E6FB0"/><rect x="143" y="65" width="9" height="9" fill="#3E6FB0"/><rect x="152" y="65" width="9" height="9" fill="#C89B4A"/><rect x="161" y="65" width="9" height="9" fill="#3E6FB0"/><rect x="8" y="74" width="9" height="9" fill="#C89B4A"/><rect x="17" y="74" width="9" height="9" fill="#C89B4A"/><rect x="26" y="74" width="9" height="9" fill="#C89B4A"/><rect x="35" y="74" width="9" height="9" fill="#C89B4A"/><rect x="44" y="74" width="9" height="9" fill="#3E6FB0"/><rect x="53" y="74" width="9" height="9" fill="#3E6FB0"/><rect x="62" y="74" width="9" height="9" fill="#9BA3B4"/><rect x="71" y="74" width="9" height="9" fill="#3E6FB0"/><rect x="80" y="74" width="9" height="9" fill="#3E6FB0"/><rect x="89" y="74" width="9" height="9" fill="#3E6FB0"/><rect x="98" y="74" width="9" height="9" fill="#C89B4A"/><rect x="107" y="74" width="9" height="9" fill="#3E6FB0"/><rect x="116" y="74" width="9" height="9" fill="#3E6FB0"/><rect x="125" y="74" width="9" height="9" fill="#C89B4A"/><rect x="134" y="74" width="9" height="9" fill="#C89B4A"/><rect x="143" y="74" width="9" height="9" fill="#3E6FB0"/><rect x="152" y="74" width="9" height="9" fill="#3E6FB0"/><rect x="161" y="74" width="9" height="9" fill="#C89B4A"/><rect x="8" y="83" width="9" height="9" fill="#3E6FB0"/><rect x="17" y="83" width="9" height="9" fill="#C89B4A"/><rect x="26" y="83" width="9" height="9" fill="#C89B4A"/><rect x="35" y="83" width="9" height="9" fill="#C89B4A"/><rect x="44" y="83" width="9" height="9" fill="#C89B4A"/><rect x="53" y="83" width="9" height="9" fill="#3E6FB0"/><rect x="62" y="83" width="9" height="9" fill="#3E6FB0"/><rect x="71" y="83" width="9" height="9" fill="#9BA3B4"/><rect x="80" y="83" width="9" height="9" fill="#3E6FB0"/><rect x="89" y="83" width="9" height="9" fill="#C89B4A"/><rect x="98" y="83" width="9" height="9" fill="#3E6FB0"/><rect x="107" y="83" width="9" height="9" fill="#C89B4A"/><rect x="116" y="83" width="9" height="9" fill="#3E6FB0"/><rect x="125" y="83" width="9" height="9" fill="#3E6FB0"/><rect x="134" y="83" width="9" height="9" fill="#C89B4A"/><rect x="143" y="83" width="9" height="9" fill="#C89B4A"/><rect x="152" y="83" width="9" height="9" fill="#3E6FB0"/><rect x="161" y="83" width="9" height="9" fill="#3E6FB0"/><rect x="8" y="92" width="9" height="9" fill="#3E6FB0"/><rect x="17" y="92" width="9" height="9" fill="#3E6FB0"/><rect x="26" y="92" width="9" height="9" fill="#C89B4A"/><rect x="35" y="92" width="9" height="9" fill="#C89B4A"/><rect x="44" y="92" width="9" height="9" fill="#C89B4A"/><rect x="53" y="92" width="9" height="9" fill="#C89B4A"/><rect x="62" y="92" width="9" height="9" fill="#3E6FB0"/><rect x="71" y="92" width="9" height="9" fill="#3E6FB0"/><rect x="80" y="92" width="9" height="9" fill="#9BA3B4"/><rect x="89" y="92" width="9" height="9" fill="#3E6FB0"/><rect x="98" y="92" width="9" height="9" fill="#C89B4A"/><rect x="107" y="92" width="9" height="9" fill="#3E6FB0"/><rect x="116" y="92" width="9" height="9" fill="#C89B4A"/><rect x="125" y="92" width="9" height="9" fill="#3E6FB0"/><rect x="134" y="92" width="9" height="9" fill="#3E6FB0"/><rect x="143" y="92" width="9" height="9" fill="#C89B4A"/><rect x="152" y="92" width="9" height="9" fill="#C89B4A"/><rect x="161" y="92" width="9" height="9" fill="#3E6FB0"/><rect x="8" y="101" width="9" height="9" fill="#3E6FB0"/><rect x="17" y="101" width="9" height="9" fill="#C89B4A"/><rect x="26" y="101" width="9" height="9" fill="#C89B4A"/><rect x="35" y="101" width="9" height="9" fill="#3E6FB0"/><rect x="44" y="101" width="9" height="9" fill="#3E6FB0"/><rect x="53" y="101" width="9" height="9" fill="#C89B4A"/><rect x="62" y="101" width="9" height="9" fill="#3E6FB0"/><rect x="71" y="101" width="9" height="9" fill="#C89B4A"/><rect x="80" y="101" width="9" height="9" fill="#3E6FB0"/><rect x="89" y="101" width="9" height="9" fill="#9BA3B4"/><rect x="98" y="101" width="9" height="9" fill="#C89B4A"/><rect x="107" y="101" width="9" height="9" fill="#C89B4A"/><rect x="116" y="101" width="9" height="9" fill="#3E6FB0"/><rect x="125" y="101" width="9" height="9" fill="#3E6FB0"/><rect x="134" y="101" width="9" height="9" fill="#3E6FB0"/><rect x="143" y="101" width="9" height="9" fill="#3E6FB0"/><rect x="152" y="101" width="9" height="9" fill="#C89B4A"/><rect x="161" y="101" width="9" height="9" fill="#C89B4A"/><rect x="8" y="110" width="9" height="9" fill="#3E6FB0"/><rect x="17" y="110" width="9" height="9" fill="#3E6FB0"/><rect x="26" y="110" width="9" height="9" fill="#C89B4A"/><rect x="35" y="110" width="9" height="9" fill="#C89B4A"/><rect x="44" y="110" width="9" height="9" fill="#3E6FB0"/><rect x="53" y="110" width="9" height="9" fill="#3E6FB0"/><rect x="62" y="110" width="9" height="9" fill="#C89B4A"/><rect x="71" y="110" width="9" height="9" fill="#3E6FB0"/><rect x="80" y="110" width="9" height="9" fill="#C89B4A"/><rect x="89" y="110" width="9" height="9" fill="#C89B4A"/><rect x="98" y="110" width="9" height="9" fill="#9BA3B4"/><rect x="107" y="110" width="9" height="9" fill="#C89B4A"/><rect x="116" y="110" width="9" height="9" fill="#C89B4A"/><rect x="125" y="110" width="9" height="9" fill="#3E6FB0"/><rect x="134" y="110" width="9" height="9" fill="#3E6FB0"/><rect x="143" y="110" width="9" height="9" fill="#3E6FB0"/><rect x="152" y="110" width="9" height="9" fill="#3E6FB0"/><rect x="161" y="110" width="9" height="9" fill="#C89B4A"/><rect x="8" y="119" width="9" height="9" fill="#C89B4A"/><rect x="17" y="119" width="9" height="9" fill="#3E6FB0"/><rect x="26" y="119" width="9" height="9" fill="#3E6FB0"/><rect x="35" y="119" width="9" height="9" fill="#C89B4A"/><rect x="44" y="119" width="9" height="9" fill="#C89B4A"/><rect x="53" y="119" width="9" height="9" fill="#3E6FB0"/><rect x="62" y="119" width="9" height="9" fill="#3E6FB0"/><rect x="71" y="119" width="9" height="9" fill="#C89B4A"/><rect x="80" y="119" width="9" height="9" fill="#3E6FB0"/><rect x="89" y="119" width="9" height="9" fill="#C89B4A"/><rect x="98" y="119" width="9" height="9" fill="#C89B4A"/><rect x="107" y="119" width="9" height="9" fill="#9BA3B4"/><rect x="116" y="119" width="9" height="9" fill="#C89B4A"/><rect x="125" y="119" width="9" height="9" fill="#C89B4A"/><rect x="134" y="119" width="9" height="9" fill="#3E6FB0"/><rect x="143" y="119" width="9" height="9" fill="#3E6FB0"/><rect x="152" y="119" width="9" height="9" fill="#3E6FB0"/><rect x="161" y="119" width="9" height="9" fill="#3E6FB0"/><rect x="8" y="128" width="9" height="9" fill="#3E6FB0"/><rect x="17" y="128" width="9" height="9" fill="#C89B4A"/><rect x="26" y="128" width="9" height="9" fill="#3E6FB0"/><rect x="35" y="128" width="9" height="9" fill="#3E6FB0"/><rect x="44" y="128" width="9" height="9" fill="#C89B4A"/><rect x="53" y="128" width="9" height="9" fill="#C89B4A"/><rect x="62" y="128" width="9" height="9" fill="#3E6FB0"/><rect x="71" y="128" width="9" height="9" fill="#3E6FB0"/><rect x="80" y="128" width="9" height="9" fill="#C89B4A"/><rect x="89" y="128" width="9" height="9" fill="#3E6FB0"/><rect x="98" y="128" width="9" height="9" fill="#C89B4A"/><rect x="107" y="128" width="9" height="9" fill="#C89B4A"/><rect x="116" y="128" width="9" height="9" fill="#9BA3B4"/><rect x="125" y="128" width="9" height="9" fill="#C89B4A"/><rect x="134" y="128" width="9" height="9" fill="#C89B4A"/><rect x="143" y="128" width="9" height="9" fill="#3E6FB0"/><rect x="152" y="128" width="9" height="9" fill="#3E6FB0"/><rect x="161" y="128" width="9" height="9" fill="#3E6FB0"/><rect x="8" y="137" width="9" height="9" fill="#C89B4A"/><rect x="17" y="137" width="9" height="9" fill="#3E6FB0"/><rect x="26" y="137" width="9" height="9" fill="#C89B4A"/><rect x="35" y="137" width="9" height="9" fill="#3E6FB0"/><rect x="44" y="137" width="9" height="9" fill="#3E6FB0"/><rect x="53" y="137" width="9" height="9" fill="#C89B4A"/><rect x="62" y="137" width="9" height="9" fill="#C89B4A"/><rect x="71" y="137" width="9" height="9" fill="#3E6FB0"/><rect x="80" y="137" width="9" height="9" fill="#3E6FB0"/><rect x="89" y="137" width="9" height="9" fill="#3E6FB0"/><rect x="98" y="137" width="9" height="9" fill="#3E6FB0"/><rect x="107" y="137" width="9" height="9" fill="#C89B4A"/><rect x="116" y="137" width="9" height="9" fill="#C89B4A"/><rect x="125" y="137" width="9" height="9" fill="#9BA3B4"/><rect x="134" y="137" width="9" height="9" fill="#C89B4A"/><rect x="143" y="137" width="9" height="9" fill="#C89B4A"/><rect x="152" y="137" width="9" height="9" fill="#3E6FB0"/><rect x="161" y="137" width="9" height="9" fill="#3E6FB0"/><rect x="8" y="146" width="9" height="9" fill="#3E6FB0"/><rect x="17" y="146" width="9" height="9" fill="#C89B4A"/><rect x="26" y="146" width="9" height="9" fill="#3E6FB0"/><rect x="35" y="146" width="9" height="9" fill="#C89B4A"/><rect x="44" y="146" width="9" height="9" fill="#3E6FB0"/><rect x="53" y="146" width="9" height="9" fill="#3E6FB0"/><rect x="62" y="146" width="9" height="9" fill="#C89B4A"/><rect x="71" y="146" width="9" height="9" fill="#C89B4A"/><rect x="80" y="146" width="9" height="9" fill="#3E6FB0"/><rect x="89" y="146" width="9" height="9" fill="#3E6FB0"/><rect x="98" y="146" width="9" height="9" fill="#3E6FB0"/><rect x="107" y="146" width="9" height="9" fill="#3E6FB0"/><rect x="116" y="146" width="9" height="9" fill="#C89B4A"/><rect x="125" y="146" width="9" height="9" fill="#C89B4A"/><rect x="134" y="146" width="9" height="9" fill="#9BA3B4"/><rect x="143" y="146" width="9" height="9" fill="#C89B4A"/><rect x="152" y="146" width="9" height="9" fill="#C89B4A"/><rect x="161" y="146" width="9" height="9" fill="#3E6FB0"/><rect x="8" y="155" width="9" height="9" fill="#3E6FB0"/><rect x="17" y="155" width="9" height="9" fill="#3E6FB0"/><rect x="26" y="155" width="9" height="9" fill="#C89B4A"/><rect x="35" y="155" width="9" height="9" fill="#3E6FB0"/><rect x="44" y="155" width="9" height="9" fill="#C89B4A"/><rect x="53" y="155" width="9" height="9" fill="#3E6FB0"/><rect x="62" y="155" width="9" height="9" fill="#3E6FB0"/><rect x="71" y="155" width="9" height="9" fill="#C89B4A"/><rect x="80" y="155" width="9" height="9" fill="#C89B4A"/><rect x="89" y="155" width="9" height="9" fill="#3E6FB0"/><rect x="98" y="155" width="9" height="9" fill="#3E6FB0"/><rect x="107" y="155" width="9" height="9" fill="#3E6FB0"/><rect x="116" y="155" width="9" height="9" fill="#3E6FB0"/><rect x="125" y="155" width="9" height="9" fill="#C89B4A"/><rect x="134" y="155" width="9" height="9" fill="#C89B4A"/><rect x="143" y="155" width="9" height="9" fill="#9BA3B4"/><rect x="152" y="155" width="9" height="9" fill="#C89B4A"/><rect x="161" y="155" width="9" height="9" fill="#C89B4A"/><rect x="8" y="164" width="9" height="9" fill="#C89B4A"/><rect x="17" y="164" width="9" height="9" fill="#3E6FB0"/><rect x="26" y="164" width="9" height="9" fill="#3E6FB0"/><rect x="35" y="164" width="9" height="9" fill="#C89B4A"/><rect x="44" y="164" width="9" height="9" fill="#3E6FB0"/><rect x="53" y="164" width="9" height="9" fill="#C89B4A"/><rect x="62" y="164" width="9" height="9" fill="#3E6FB0"/><rect x="71" y="164" width="9" height="9" fill="#3E6FB0"/><rect x="80" y="164" width="9" height="9" fill="#C89B4A"/><rect x="89" y="164" width="9" height="9" fill="#C89B4A"/><rect x="98" y="164" width="9" height="9" fill="#3E6FB0"/><rect x="107" y="164" width="9" height="9" fill="#3E6FB0"/><rect x="116" y="164" width="9" height="9" fill="#3E6FB0"/><rect x="125" y="164" width="9" height="9" fill="#3E6FB0"/><rect x="134" y="164" width="9" height="9" fill="#C89B4A"/><rect x="143" y="164" width="9" height="9" fill="#C89B4A"/><rect x="152" y="164" width="9" height="9" fill="#9BA3B4"/><rect x="161" y="164" width="9" height="9" fill="#C89B4A"/><rect x="8" y="173" width="9" height="9" fill="#C89B4A"/><rect x="17" y="173" width="9" height="9" fill="#C89B4A"/><rect x="26" y="173" width="9" height="9" fill="#3E6FB0"/><rect x="35" y="173" width="9" height="9" fill="#3E6FB0"/><rect x="44" y="173" width="9" height="9" fill="#C89B4A"/><rect x="53" y="173" width="9" height="9" fill="#3E6FB0"/><rect x="62" y="173" width="9" height="9" fill="#C89B4A"/><rect x="71" y="173" width="9" height="9" fill="#3E6FB0"/><rect x="80" y="173" width="9" height="9" fill="#3E6FB0"/><rect x="89" y="173" width="9" height="9" fill="#C89B4A"/><rect x="98" y="173" width="9" height="9" fill="#C89B4A"/><rect x="107" y="173" width="9" height="9" fill="#3E6FB0"/><rect x="116" y="173" width="9" height="9" fill="#3E6FB0"/><rect x="125" y="173" width="9" height="9" fill="#3E6FB0"/><rect x="134" y="173" width="9" height="9" fill="#3E6FB0"/><rect x="143" y="173" width="9" height="9" fill="#C89B4A"/><rect x="152" y="173" width="9" height="9" fill="#C89B4A"/><rect x="161" y="173" width="9" height="9" fill="#9BA3B4"/><text x="196" y="13" font-family="ui-monospace,monospace" font-size="11" fill="#8A90A0">grouped by orbit</text><rect x="196" y="20" width="9" height="9" fill="#9BA3B4"/><rect x="205" y="20" width="9" height="9" fill="#3E6FB0"/><rect x="214" y="20" width="9" height="9" fill="#3E6FB0"/><rect x="223" y="20" width="9" height="9" fill="#3E6FB0"/><rect x="232" y="20" width="9" height="9" fill="#3E6FB0"/><rect x="241" y="20" width="9" height="9" fill="#C89B4A"/><rect x="250" y="20" width="9" height="9" fill="#C89B4A"/><rect x="259" y="20" width="9" height="9" fill="#C89B4A"/><rect x="268" y="20" width="9" height="9" fill="#C89B4A"/><rect x="277" y="20" width="9" height="9" fill="#3E6FB0"/><rect x="286" y="20" width="9" height="9" fill="#3E6FB0"/><rect x="295" y="20" width="9" height="9" fill="#3E6FB0"/><rect x="304" y="20" width="9" height="9" fill="#3E6FB0"/><rect x="313" y="20" width="9" height="9" fill="#C89B4A"/><rect x="322" y="20" width="9" height="9" fill="#C89B4A"/><rect x="331" y="20" width="9" height="9" fill="#3E6FB0"/><rect x="340" y="20" width="9" height="9" fill="#C89B4A"/><rect x="349" y="20" width="9" height="9" fill="#C89B4A"/><rect x="196" y="29" width="9" height="9" fill="#3E6FB0"/><rect x="205" y="29" width="9" height="9" fill="#9BA3B4"/><rect x="214" y="29" width="9" height="9" fill="#3E6FB0"/><rect x="223" y="29" width="9" height="9" fill="#3E6FB0"/><rect x="232" y="29" width="9" height="9" fill="#C89B4A"/><rect x="241" y="29" width="9" height="9" fill="#3E6FB0"/><rect x="250" y="29" width="9" height="9" fill="#C89B4A"/><rect x="259" y="29" width="9" height="9" fill="#C89B4A"/><rect x="268" y="29" width="9" height="9" fill="#C89B4A"/><rect x="277" y="29" width="9" height="9" fill="#C89B4A"/><rect x="286" y="29" width="9" height="9" fill="#3E6FB0"/><rect x="295" y="29" width="9" height="9" fill="#3E6FB0"/><rect x="304" y="29" width="9" height="9" fill="#C89B4A"/><rect x="313" y="29" width="9" height="9" fill="#3E6FB0"/><rect x="322" y="29" width="9" height="9" fill="#3E6FB0"/><rect x="331" y="29" width="9" height="9" fill="#C89B4A"/><rect x="340" y="29" width="9" height="9" fill="#3E6FB0"/><rect x="349" y="29" width="9" height="9" fill="#C89B4A"/><rect x="196" y="38" width="9" height="9" fill="#3E6FB0"/><rect x="205" y="38" width="9" height="9" fill="#3E6FB0"/><rect x="214" y="38" width="9" height="9" fill="#9BA3B4"/><rect x="223" y="38" width="9" height="9" fill="#C89B4A"/><rect x="232" y="38" width="9" height="9" fill="#3E6FB0"/><rect x="241" y="38" width="9" height="9" fill="#C89B4A"/><rect x="250" y="38" width="9" height="9" fill="#3E6FB0"/><rect x="259" y="38" width="9" height="9" fill="#C89B4A"/><rect x="268" y="38" width="9" height="9" fill="#C89B4A"/><rect x="277" y="38" width="9" height="9" fill="#3E6FB0"/><rect x="286" y="38" width="9" height="9" fill="#C89B4A"/><rect x="295" y="38" width="9" height="9" fill="#C89B4A"/><rect x="304" y="38" width="9" height="9" fill="#3E6FB0"/><rect x="313" y="38" width="9" height="9" fill="#3E6FB0"/><rect x="322" y="38" width="9" height="9" fill="#3E6FB0"/><rect x="331" y="38" width="9" height="9" fill="#C89B4A"/><rect x="340" y="38" width="9" height="9" fill="#C89B4A"/><rect x="349" y="38" width="9" height="9" fill="#3E6FB0"/><rect x="196" y="47" width="9" height="9" fill="#3E6FB0"/><rect x="205" y="47" width="9" height="9" fill="#3E6FB0"/><rect x="214" y="47" width="9" height="9" fill="#C89B4A"/><rect x="223" y="47" width="9" height="9" fill="#9BA3B4"/><rect x="232" y="47" width="9" height="9" fill="#C89B4A"/><rect x="241" y="47" width="9" height="9" fill="#3E6FB0"/><rect x="250" y="47" width="9" height="9" fill="#C89B4A"/><rect x="259" y="47" width="9" height="9" fill="#3E6FB0"/><rect x="268" y="47" width="9" height="9" fill="#C89B4A"/><rect x="277" y="47" width="9" height="9" fill="#C89B4A"/><rect x="286" y="47" width="9" height="9" fill="#C89B4A"/><rect x="295" y="47" width="9" height="9" fill="#C89B4A"/><rect x="304" y="47" width="9" height="9" fill="#3E6FB0"/><rect x="313" y="47" width="9" height="9" fill="#3E6FB0"/><rect x="322" y="47" width="9" height="9" fill="#C89B4A"/><rect x="331" y="47" width="9" height="9" fill="#3E6FB0"/><rect x="340" y="47" width="9" height="9" fill="#3E6FB0"/><rect x="349" y="47" width="9" height="9" fill="#3E6FB0"/><rect x="196" y="56" width="9" height="9" fill="#3E6FB0"/><rect x="205" y="56" width="9" height="9" fill="#C89B4A"/><rect x="214" y="56" width="9" height="9" fill="#3E6FB0"/><rect x="223" y="56" width="9" height="9" fill="#C89B4A"/><rect x="232" y="56" width="9" height="9" fill="#9BA3B4"/><rect x="241" y="56" width="9" height="9" fill="#C89B4A"/><rect x="250" y="56" width="9" height="9" fill="#3E6FB0"/><rect x="259" y="56" width="9" height="9" fill="#C89B4A"/><rect x="268" y="56" width="9" height="9" fill="#3E6FB0"/><rect x="277" y="56" width="9" height="9" fill="#C89B4A"/><rect x="286" y="56" width="9" height="9" fill="#C89B4A"/><rect x="295" y="56" width="9" height="9" fill="#3E6FB0"/><rect x="304" y="56" width="9" height="9" fill="#C89B4A"/><rect x="313" y="56" width="9" height="9" fill="#C89B4A"/><rect x="322" y="56" width="9" height="9" fill="#3E6FB0"/><rect x="331" y="56" width="9" height="9" fill="#3E6FB0"/><rect x="340" y="56" width="9" height="9" fill="#3E6FB0"/><rect x="349" y="56" width="9" height="9" fill="#3E6FB0"/><rect x="196" y="65" width="9" height="9" fill="#C89B4A"/><rect x="205" y="65" width="9" height="9" fill="#3E6FB0"/><rect x="214" y="65" width="9" height="9" fill="#C89B4A"/><rect x="223" y="65" width="9" height="9" fill="#3E6FB0"/><rect x="232" y="65" width="9" height="9" fill="#C89B4A"/><rect x="241" y="65" width="9" height="9" fill="#9BA3B4"/><rect x="250" y="65" width="9" height="9" fill="#C89B4A"/><rect x="259" y="65" width="9" height="9" fill="#3E6FB0"/><rect x="268" y="65" width="9" height="9" fill="#3E6FB0"/><rect x="277" y="65" width="9" height="9" fill="#3E6FB0"/><rect x="286" y="65" width="9" height="9" fill="#3E6FB0"/><rect x="295" y="65" width="9" height="9" fill="#C89B4A"/><rect x="304" y="65" width="9" height="9" fill="#C89B4A"/><rect x="313" y="65" width="9" height="9" fill="#C89B4A"/><rect x="322" y="65" width="9" height="9" fill="#3E6FB0"/><rect x="331" y="65" width="9" height="9" fill="#3E6FB0"/><rect x="340" y="65" width="9" height="9" fill="#C89B4A"/><rect x="349" y="65" width="9" height="9" fill="#3E6FB0"/><rect x="196" y="74" width="9" height="9" fill="#C89B4A"/><rect x="205" y="74" width="9" height="9" fill="#C89B4A"/><rect x="214" y="74" width="9" height="9" fill="#3E6FB0"/><rect x="223" y="74" width="9" height="9" fill="#C89B4A"/><rect x="232" y="74" width="9" height="9" fill="#3E6FB0"/><rect x="241" y="74" width="9" height="9" fill="#C89B4A"/><rect x="250" y="74" width="9" height="9" fill="#9BA3B4"/><rect x="259" y="74" width="9" height="9" fill="#3E6FB0"/><rect x="268" y="74" width="9" height="9" fill="#3E6FB0"/><rect x="277" y="74" width="9" height="9" fill="#3E6FB0"/><rect x="286" y="74" width="9" height="9" fill="#3E6FB0"/><rect x="295" y="74" width="9" height="9" fill="#C89B4A"/><rect x="304" y="74" width="9" height="9" fill="#C89B4A"/><rect x="313" y="74" width="9" height="9" fill="#3E6FB0"/><rect x="322" y="74" width="9" height="9" fill="#C89B4A"/><rect x="331" y="74" width="9" height="9" fill="#3E6FB0"/><rect x="340" y="74" width="9" height="9" fill="#3E6FB0"/><rect x="349" y="74" width="9" height="9" fill="#C89B4A"/><rect x="196" y="83" width="9" height="9" fill="#C89B4A"/><rect x="205" y="83" width="9" height="9" fill="#C89B4A"/><rect x="214" y="83" width="9" height="9" fill="#C89B4A"/><rect x="223" y="83" width="9" height="9" fill="#3E6FB0"/><rect x="232" y="83" width="9" height="9" fill="#C89B4A"/><rect x="241" y="83" width="9" height="9" fill="#3E6FB0"/><rect x="250" y="83" width="9" height="9" fill="#3E6FB0"/><rect x="259" y="83" width="9" height="9" fill="#9BA3B4"/><rect x="268" y="83" width="9" height="9" fill="#3E6FB0"/><rect x="277" y="83" width="9" height="9" fill="#3E6FB0"/><rect x="286" y="83" width="9" height="9" fill="#C89B4A"/><rect x="295" y="83" width="9" height="9" fill="#3E6FB0"/><rect x="304" y="83" width="9" height="9" fill="#3E6FB0"/><rect x="313" y="83" width="9" height="9" fill="#C89B4A"/><rect x="322" y="83" width="9" height="9" fill="#3E6FB0"/><rect x="331" y="83" width="9" height="9" fill="#C89B4A"/><rect x="340" y="83" width="9" height="9" fill="#3E6FB0"/><rect x="349" y="83" width="9" height="9" fill="#C89B4A"/><rect x="196" y="92" width="9" height="9" fill="#C89B4A"/><rect x="205" y="92" width="9" height="9" fill="#C89B4A"/><rect x="214" y="92" width="9" height="9" fill="#C89B4A"/><rect x="223" y="92" width="9" height="9" fill="#C89B4A"/><rect x="232" y="92" width="9" height="9" fill="#3E6FB0"/><rect x="241" y="92" width="9" height="9" fill="#3E6FB0"/><rect x="250" y="92" width="9" height="9" fill="#3E6FB0"/><rect x="259" y="92" width="9" height="9" fill="#3E6FB0"/><rect x="268" y="92" width="9" height="9" fill="#9BA3B4"/><rect x="277" y="92" width="9" height="9" fill="#C89B4A"/><rect x="286" y="92" width="9" height="9" fill="#3E6FB0"/><rect x="295" y="92" width="9" height="9" fill="#3E6FB0"/><rect x="304" y="92" width="9" height="9" fill="#3E6FB0"/><rect x="313" y="92" width="9" height="9" fill="#3E6FB0"/><rect x="322" y="92" width="9" height="9" fill="#C89B4A"/><rect x="331" y="92" width="9" height="9" fill="#C89B4A"/><rect x="340" y="92" width="9" height="9" fill="#C89B4A"/><rect x="349" y="92" width="9" height="9" fill="#3E6FB0"/><rect x="196" y="101" width="9" height="9" fill="#3E6FB0"/><rect x="205" y="101" width="9" height="9" fill="#C89B4A"/><rect x="214" y="101" width="9" height="9" fill="#3E6FB0"/><rect x="223" y="101" width="9" height="9" fill="#C89B4A"/><rect x="232" y="101" width="9" height="9" fill="#C89B4A"/><rect x="241" y="101" width="9" height="9" fill="#3E6FB0"/><rect x="250" y="101" width="9" height="9" fill="#3E6FB0"/><rect x="259" y="101" width="9" height="9" fill="#3E6FB0"/><rect x="268" y="101" width="9" height="9" fill="#C89B4A"/><rect x="277" y="101" width="9" height="9" fill="#9BA3B4"/><rect x="286" y="101" width="9" height="9" fill="#3E6FB0"/><rect x="295" y="101" width="9" height="9" fill="#C89B4A"/><rect x="304" y="101" width="9" height="9" fill="#3E6FB0"/><rect x="313" y="101" width="9" height="9" fill="#C89B4A"/><rect x="322" y="101" width="9" height="9" fill="#3E6FB0"/><rect x="331" y="101" width="9" height="9" fill="#3E6FB0"/><rect x="340" y="101" width="9" height="9" fill="#C89B4A"/><rect x="349" y="101" width="9" height="9" fill="#C89B4A"/><rect x="196" y="110" width="9" height="9" fill="#3E6FB0"/><rect x="205" y="110" width="9" height="9" fill="#3E6FB0"/><rect x="214" y="110" width="9" height="9" fill="#C89B4A"/><rect x="223" y="110" width="9" height="9" fill="#C89B4A"/><rect x="232" y="110" width="9" height="9" fill="#C89B4A"/><rect x="241" y="110" width="9" height="9" fill="#3E6FB0"/><rect x="250" y="110" width="9" height="9" fill="#3E6FB0"/><rect x="259" y="110" width="9" height="9" fill="#C89B4A"/><rect x="268" y="110" width="9" height="9" fill="#3E6FB0"/><rect x="277" y="110" width="9" height="9" fill="#3E6FB0"/><rect x="286" y="110" width="9" height="9" fill="#9BA3B4"/><rect x="295" y="110" width="9" height="9" fill="#3E6FB0"/><rect x="304" y="110" width="9" height="9" fill="#C89B4A"/><rect x="313" y="110" width="9" height="9" fill="#3E6FB0"/><rect x="322" y="110" width="9" height="9" fill="#C89B4A"/><rect x="331" y="110" width="9" height="9" fill="#3E6FB0"/><rect x="340" y="110" width="9" height="9" fill="#C89B4A"/><rect x="349" y="110" width="9" height="9" fill="#C89B4A"/><rect x="196" y="119" width="9" height="9" fill="#3E6FB0"/><rect x="205" y="119" width="9" height="9" fill="#3E6FB0"/><rect x="214" y="119" width="9" height="9" fill="#C89B4A"/><rect x="223" y="119" width="9" height="9" fill="#C89B4A"/><rect x="232" y="119" width="9" height="9" fill="#3E6FB0"/><rect x="241" y="119" width="9" height="9" fill="#C89B4A"/><rect x="250" y="119" width="9" height="9" fill="#C89B4A"/><rect x="259" y="119" width="9" height="9" fill="#3E6FB0"/><rect x="268" y="119" width="9" height="9" fill="#3E6FB0"/><rect x="277" y="119" width="9" height="9" fill="#C89B4A"/><rect x="286" y="119" width="9" height="9" fill="#3E6FB0"/><rect x="295" y="119" width="9" height="9" fill="#9BA3B4"/><rect x="304" y="119" width="9" height="9" fill="#3E6FB0"/><rect x="313" y="119" width="9" height="9" fill="#C89B4A"/><rect x="322" y="119" width="9" height="9" fill="#3E6FB0"/><rect x="331" y="119" width="9" height="9" fill="#C89B4A"/><rect x="340" y="119" width="9" height="9" fill="#3E6FB0"/><rect x="349" y="119" width="9" height="9" fill="#C89B4A"/><rect x="196" y="128" width="9" height="9" fill="#3E6FB0"/><rect x="205" y="128" width="9" height="9" fill="#C89B4A"/><rect x="214" y="128" width="9" height="9" fill="#3E6FB0"/><rect x="223" y="128" width="9" height="9" fill="#3E6FB0"/><rect x="232" y="128" width="9" height="9" fill="#C89B4A"/><rect x="241" y="128" width="9" height="9" fill="#C89B4A"/><rect x="250" y="128" width="9" height="9" fill="#C89B4A"/><rect x="259" y="128" width="9" height="9" fill="#3E6FB0"/><rect x="268" y="128" width="9" height="9" fill="#3E6FB0"/><rect x="277" y="128" width="9" height="9" fill="#3E6FB0"/><rect x="286" y="128" width="9" height="9" fill="#C89B4A"/><rect x="295" y="128" width="9" height="9" fill="#3E6FB0"/><rect x="304" y="128" width="9" height="9" fill="#9BA3B4"/><rect x="313" y="128" width="9" height="9" fill="#3E6FB0"/><rect x="322" y="128" width="9" height="9" fill="#C89B4A"/><rect x="331" y="128" width="9" height="9" fill="#C89B4A"/><rect x="340" y="128" width="9" height="9" fill="#C89B4A"/><rect x="349" y="128" width="9" height="9" fill="#3E6FB0"/><rect x="196" y="137" width="9" height="9" fill="#C89B4A"/><rect x="205" y="137" width="9" height="9" fill="#3E6FB0"/><rect x="214" y="137" width="9" height="9" fill="#3E6FB0"/><rect x="223" y="137" width="9" height="9" fill="#3E6FB0"/><rect x="232" y="137" width="9" height="9" fill="#C89B4A"/><rect x="241" y="137" width="9" height="9" fill="#C89B4A"/><rect x="250" y="137" width="9" height="9" fill="#3E6FB0"/><rect x="259" y="137" width="9" height="9" fill="#C89B4A"/><rect x="268" y="137" width="9" height="9" fill="#3E6FB0"/><rect x="277" y="137" width="9" height="9" fill="#C89B4A"/><rect x="286" y="137" width="9" height="9" fill="#3E6FB0"/><rect x="295" y="137" width="9" height="9" fill="#C89B4A"/><rect x="304" y="137" width="9" height="9" fill="#3E6FB0"/><rect x="313" y="137" width="9" height="9" fill="#9BA3B4"/><rect x="322" y="137" width="9" height="9" fill="#C89B4A"/><rect x="331" y="137" width="9" height="9" fill="#C89B4A"/><rect x="340" y="137" width="9" height="9" fill="#3E6FB0"/><rect x="349" y="137" width="9" height="9" fill="#3E6FB0"/><rect x="196" y="146" width="9" height="9" fill="#C89B4A"/><rect x="205" y="146" width="9" height="9" fill="#3E6FB0"/><rect x="214" y="146" width="9" height="9" fill="#3E6FB0"/><rect x="223" y="146" width="9" height="9" fill="#C89B4A"/><rect x="232" y="146" width="9" height="9" fill="#3E6FB0"/><rect x="241" y="146" width="9" height="9" fill="#3E6FB0"/><rect x="250" y="146" width="9" height="9" fill="#C89B4A"/><rect x="259" y="146" width="9" height="9" fill="#3E6FB0"/><rect x="268" y="146" width="9" height="9" fill="#C89B4A"/><rect x="277" y="146" width="9" height="9" fill="#3E6FB0"/><rect x="286" y="146" width="9" height="9" fill="#C89B4A"/><rect x="295" y="146" width="9" height="9" fill="#3E6FB0"/><rect x="304" y="146" width="9" height="9" fill="#C89B4A"/><rect x="313" y="146" width="9" height="9" fill="#C89B4A"/><rect x="322" y="146" width="9" height="9" fill="#9BA3B4"/><rect x="331" y="146" width="9" height="9" fill="#C89B4A"/><rect x="340" y="146" width="9" height="9" fill="#3E6FB0"/><rect x="349" y="146" width="9" height="9" fill="#3E6FB0"/><rect x="196" y="155" width="9" height="9" fill="#3E6FB0"/><rect x="205" y="155" width="9" height="9" fill="#C89B4A"/><rect x="214" y="155" width="9" height="9" fill="#C89B4A"/><rect x="223" y="155" width="9" height="9" fill="#3E6FB0"/><rect x="232" y="155" width="9" height="9" fill="#3E6FB0"/><rect x="241" y="155" width="9" height="9" fill="#3E6FB0"/><rect x="250" y="155" width="9" height="9" fill="#3E6FB0"/><rect x="259" y="155" width="9" height="9" fill="#C89B4A"/><rect x="268" y="155" width="9" height="9" fill="#C89B4A"/><rect x="277" y="155" width="9" height="9" fill="#3E6FB0"/><rect x="286" y="155" width="9" height="9" fill="#3E6FB0"/><rect x="295" y="155" width="9" height="9" fill="#C89B4A"/><rect x="304" y="155" width="9" height="9" fill="#C89B4A"/><rect x="313" y="155" width="9" height="9" fill="#C89B4A"/><rect x="322" y="155" width="9" height="9" fill="#C89B4A"/><rect x="331" y="155" width="9" height="9" fill="#9BA3B4"/><rect x="340" y="155" width="9" height="9" fill="#3E6FB0"/><rect x="349" y="155" width="9" height="9" fill="#3E6FB0"/><rect x="196" y="164" width="9" height="9" fill="#C89B4A"/><rect x="205" y="164" width="9" height="9" fill="#3E6FB0"/><rect x="214" y="164" width="9" height="9" fill="#C89B4A"/><rect x="223" y="164" width="9" height="9" fill="#3E6FB0"/><rect x="232" y="164" width="9" height="9" fill="#3E6FB0"/><rect x="241" y="164" width="9" height="9" fill="#C89B4A"/><rect x="250" y="164" width="9" height="9" fill="#3E6FB0"/><rect x="259" y="164" width="9" height="9" fill="#3E6FB0"/><rect x="268" y="164" width="9" height="9" fill="#C89B4A"/><rect x="277" y="164" width="9" height="9" fill="#C89B4A"/><rect x="286" y="164" width="9" height="9" fill="#C89B4A"/><rect x="295" y="164" width="9" height="9" fill="#3E6FB0"/><rect x="304" y="164" width="9" height="9" fill="#C89B4A"/><rect x="313" y="164" width="9" height="9" fill="#3E6FB0"/><rect x="322" y="164" width="9" height="9" fill="#3E6FB0"/><rect x="331" y="164" width="9" height="9" fill="#3E6FB0"/><rect x="340" y="164" width="9" height="9" fill="#9BA3B4"/><rect x="349" y="164" width="9" height="9" fill="#C89B4A"/><rect x="196" y="173" width="9" height="9" fill="#C89B4A"/><rect x="205" y="173" width="9" height="9" fill="#C89B4A"/><rect x="214" y="173" width="9" height="9" fill="#3E6FB0"/><rect x="223" y="173" width="9" height="9" fill="#3E6FB0"/><rect x="232" y="173" width="9" height="9" fill="#3E6FB0"/><rect x="241" y="173" width="9" height="9" fill="#3E6FB0"/><rect x="250" y="173" width="9" height="9" fill="#C89B4A"/><rect x="259" y="173" width="9" height="9" fill="#C89B4A"/><rect x="268" y="173" width="9" height="9" fill="#3E6FB0"/><rect x="277" y="173" width="9" height="9" fill="#C89B4A"/><rect x="286" y="173" width="9" height="9" fill="#C89B4A"/><rect x="295" y="173" width="9" height="9" fill="#C89B4A"/><rect x="304" y="173" width="9" height="9" fill="#3E6FB0"/><rect x="313" y="173" width="9" height="9" fill="#3E6FB0"/><rect x="322" y="173" width="9" height="9" fill="#3E6FB0"/><rect x="331" y="173" width="9" height="9" fill="#3E6FB0"/><rect x="340" y="173" width="9" height="9" fill="#C89B4A"/><rect x="349" y="173" width="9" height="9" fill="#9BA3B4"/><line x1="196" y1="29" x2="358" y2="29" stroke="#FFFFFF" stroke-width="1.4" stroke-opacity=".85"/><line x1="205" y1="20" x2="205" y2="182" stroke="#FFFFFF" stroke-width="1.4" stroke-opacity=".85"/><line x1="196" y1="47" x2="358" y2="47" stroke="#FFFFFF" stroke-width="1.4" stroke-opacity=".85"/><line x1="223" y1="20" x2="223" y2="182" stroke="#FFFFFF" stroke-width="1.4" stroke-opacity=".85"/><line x1="196" y1="65" x2="358" y2="65" stroke="#FFFFFF" stroke-width="1.4" stroke-opacity=".85"/><line x1="241" y1="20" x2="241" y2="182" stroke="#FFFFFF" stroke-width="1.4" stroke-opacity=".85"/><line x1="196" y1="83" x2="358" y2="83" stroke="#FFFFFF" stroke-width="1.4" stroke-opacity=".85"/><line x1="259" y1="20" x2="259" y2="182" stroke="#FFFFFF" stroke-width="1.4" stroke-opacity=".85"/><line x1="196" y1="101" x2="358" y2="101" stroke="#FFFFFF" stroke-width="1.4" stroke-opacity=".85"/><line x1="277" y1="20" x2="277" y2="182" stroke="#FFFFFF" stroke-width="1.4" stroke-opacity=".85"/><line x1="196" y1="119" x2="358" y2="119" stroke="#FFFFFF" stroke-width="1.4" stroke-opacity=".85"/><line x1="295" y1="20" x2="295" y2="182" stroke="#FFFFFF" stroke-width="1.4" stroke-opacity=".85"/><line x1="196" y1="137" x2="358" y2="137" stroke="#FFFFFF" stroke-width="1.4" stroke-opacity=".85"/><line x1="313" y1="20" x2="313" y2="182" stroke="#FFFFFF" stroke-width="1.4" stroke-opacity=".85"/><line x1="196" y1="155" x2="358" y2="155" stroke="#FFFFFF" stroke-width="1.4" stroke-opacity=".85"/><line x1="331" y1="20" x2="331" y2="182" stroke="#FFFFFF" stroke-width="1.4" stroke-opacity=".85"/><line x1="196" y1="164" x2="358" y2="164" stroke="#FFFFFF" stroke-width="1.4" stroke-opacity=".85"/><line x1="340" y1="20" x2="340" y2="182" stroke="#FFFFFF" stroke-width="1.4" stroke-opacity=".85"/></svg>
